<mxfile host="app.diagrams.net" agent="Mozilla/5.0 (Linux; Android 14; en; Infinix X6853 Build/SP1A.210812.016) AppleWebKit/537.36 (KHTML, like Gecko) Chrome/103.0.5060.129 HiBrowser/v2.24.1.3 UWS/ Mobile Safari/537.36" version="24.8.3">
  <diagram name="Nesa alfiarianti flowchart" id="3rtsEOLaXIKMjNXG5b9P">
    <mxGraphModel dx="326" dy="1657" grid="0" gridSize="10" guides="1" tooltips="1" connect="1" arrows="1" fold="1" page="1" pageScale="1" pageWidth="827" pageHeight="1169" background="#ffffff" math="0" shadow="0">
      <root>
        <mxCell id="0" />
        <mxCell id="1" parent="0" />
        <mxCell id="MgnAwUvojBmvH0gtJC_B-1" style="edgeStyle=orthogonalEdgeStyle;rounded=0;orthogonalLoop=1;jettySize=auto;html=1;labelBackgroundColor=none;fontColor=#000000;" parent="1" target="YnnqDPtzkyMtV6Bk4nHW-2" edge="1">
          <mxGeometry relative="1" as="geometry">
            <mxPoint x="246.02999999999997" y="-1003" as="sourcePoint" />
          </mxGeometry>
        </mxCell>
        <mxCell id="MgnAwUvojBmvH0gtJC_B-13" style="edgeStyle=orthogonalEdgeStyle;rounded=0;orthogonalLoop=1;jettySize=auto;html=1;fontFamily=Helvetica;fontSize=12;fontColor=default;" parent="1" source="g7r85jQOMoN4Oxm8FhJb-2" edge="1">
          <mxGeometry relative="1" as="geometry">
            <mxPoint x="246" y="-127" as="targetPoint" />
          </mxGeometry>
        </mxCell>
        <mxCell id="555kM0DxoTcxUlXtIkQ9-1" value="" style="edgeStyle=orthogonalEdgeStyle;rounded=0;orthogonalLoop=1;jettySize=auto;html=1;" parent="1" source="YnnqDPtzkyMtV6Bk4nHW-2" target="YnnqDPtzkyMtV6Bk4nHW-4" edge="1">
          <mxGeometry relative="1" as="geometry" />
        </mxCell>
        <mxCell id="YnnqDPtzkyMtV6Bk4nHW-2" value="&lt;font color=&quot;#ffffff&quot;&gt;Masukan bilangan bulat&lt;/font&gt;" style="shape=parallelogram;perimeter=parallelogramPerimeter;whiteSpace=wrap;html=1;fixedSize=1;fillColor=default;fillStyle=auto;gradientColor=default;strokeColor=default;" parent="1" vertex="1">
          <mxGeometry x="120.75" y="-901" width="250" height="116" as="geometry" />
        </mxCell>
        <mxCell id="MgnAwUvojBmvH0gtJC_B-10" style="edgeStyle=orthogonalEdgeStyle;rounded=0;orthogonalLoop=1;jettySize=auto;html=1;entryX=0.5;entryY=0;entryDx=0;entryDy=0;fontFamily=Helvetica;fontSize=12;fontColor=default;" parent="1" source="YnnqDPtzkyMtV6Bk4nHW-4" target="g7r85jQOMoN4Oxm8FhJb-2" edge="1">
          <mxGeometry relative="1" as="geometry" />
        </mxCell>
        <mxCell id="YnnqDPtzkyMtV6Bk4nHW-4" value="Bilangan dibagi 2&lt;div&gt;Degan operasi&lt;/div&gt;&lt;div&gt;Sisa bagi.&amp;nbsp;&lt;/div&gt;" style="whiteSpace=wrap;html=1;gradientColor=default;movable=0;resizable=0;rotatable=0;deletable=0;editable=0;locked=1;connectable=0;" parent="1" vertex="1">
          <mxGeometry x="115.78" y="-687" width="260.5" height="115" as="geometry" />
        </mxCell>
        <mxCell id="MgnAwUvojBmvH0gtJC_B-12" value="Ganjil" style="shape=parallelogram;perimeter=parallelogramPerimeter;whiteSpace=wrap;html=1;fixedSize=1;strokeColor=default;align=center;verticalAlign=middle;fontFamily=Helvetica;fontSize=12;fontColor=default;fillColor=default;gradientColor=default;" parent="1" vertex="1">
          <mxGeometry x="147.56" y="-128" width="196.94" height="132" as="geometry" />
        </mxCell>
        <mxCell id="MgnAwUvojBmvH0gtJC_B-22" style="edgeStyle=orthogonalEdgeStyle;rounded=0;orthogonalLoop=1;jettySize=auto;html=1;" parent="1" source="g7r85jQOMoN4Oxm8FhJb-2" edge="1">
          <mxGeometry relative="1" as="geometry">
            <mxPoint x="531" y="-371" as="targetPoint" />
          </mxGeometry>
        </mxCell>
        <mxCell id="g7r85jQOMoN4Oxm8FhJb-2" value="Apakah sisa bagi=0?&amp;nbsp;" style="rhombus;whiteSpace=wrap;html=1;gradientColor=default;" parent="1" vertex="1">
          <mxGeometry x="97.06" y="-486" width="297.94" height="229" as="geometry" />
        </mxCell>
        <mxCell id="MgnAwUvojBmvH0gtJC_B-18" value="Genap" style="shape=parallelogram;perimeter=parallelogramPerimeter;whiteSpace=wrap;html=1;fixedSize=1;gradientColor=default;" parent="1" vertex="1">
          <mxGeometry x="521" y="-423" width="194" height="124.75" as="geometry" />
        </mxCell>
        <mxCell id="wZ4hXaptDTvif4JOnBLv-1" value="Mulai" style="ellipse;whiteSpace=wrap;html=1;gradientColor=default;" parent="1" vertex="1">
          <mxGeometry x="152.53" y="-1097" width="187" height="94" as="geometry" />
        </mxCell>
      </root>
    </mxGraphModel>
  </diagram>
</mxfile>
